<svg width="25" height="24" viewBox="0 0 25 24" fill="none" xmlns="http://www.w3.org/2000/svg">
<path d="M16.7143 22.7498H8.71434C4.09434 22.7498 3.23434 20.5998 3.01434 18.5098L2.26434 10.4998C2.15434 9.44977 2.12434 7.89977 3.16434 6.73977C4.06434 5.73977 5.55434 5.25977 7.71434 5.25977H17.7143C19.8843 5.25977 21.3743 5.74977 22.2643 6.73977C23.3043 7.89977 23.2743 9.44977 23.1643 10.5098L22.4143 18.4998C22.1943 20.5998 21.3343 22.7498 16.7143 22.7498ZM7.71434 6.74977C6.02434 6.74977 4.86434 7.07977 4.27434 7.73977C3.78434 8.27977 3.62434 9.10977 3.75434 10.3498L4.50434 18.3598C4.67434 19.9398 5.10434 21.2498 8.71434 21.2498H16.7143C20.3143 21.2498 20.7543 19.9398 20.9243 18.3498L21.6743 10.3598C21.8043 9.10977 21.6443 8.27977 21.1543 7.73977C20.5643 7.07977 19.4043 6.74977 17.7143 6.74977H7.71434Z" fill="#F96115"/>
<path d="M16.7144 6.75C16.3044 6.75 15.9644 6.41 15.9644 6V5.2C15.9644 3.42 15.9644 2.75 13.5144 2.75H11.9144C9.46436 2.75 9.46436 3.42 9.46436 5.2V6C9.46436 6.41 9.12436 6.75 8.71436 6.75C8.30436 6.75 7.96436 6.41 7.96436 6V5.2C7.96436 3.44 7.96436 1.25 11.9144 1.25H13.5144C17.4644 1.25 17.4644 3.44 17.4644 5.2V6C17.4644 6.41 17.1244 6.75 16.7144 6.75Z" fill="#F96115"/>
<path d="M12.7144 16.75C9.96436 16.75 9.96436 15.05 9.96436 14.03V13C9.96436 11.59 10.3044 11.25 11.7144 11.25H13.7144C15.1244 11.25 15.4644 11.59 15.4644 13V14C15.4644 15.04 15.4644 16.75 12.7144 16.75ZM11.4644 12.75C11.4644 12.83 11.4644 12.92 11.4644 13V14.03C11.4644 15.06 11.4644 15.25 12.7144 15.25C13.9644 15.25 13.9644 15.09 13.9644 14.02V13C13.9644 12.92 13.9644 12.83 13.9644 12.75C13.8844 12.75 13.7944 12.75 13.7144 12.75H11.7144C11.6344 12.75 11.5444 12.75 11.4644 12.75Z" fill="#F96115"/>
<path d="M14.7144 14.7702C14.3444 14.7702 14.0144 14.4902 13.9744 14.1102C13.9244 13.7002 14.2144 13.3202 14.6244 13.2702C17.2644 12.9402 19.7944 11.9402 21.9244 10.3902C22.2544 10.1402 22.7244 10.2202 22.9744 10.5602C23.2144 10.8902 23.1444 11.3602 22.8044 11.6102C20.4644 13.3102 17.7044 14.4002 14.8044 14.7702C14.7744 14.7702 14.7444 14.7702 14.7144 14.7702Z" fill="#F96115"/>
<path d="M10.7143 14.7799C10.6843 14.7799 10.6543 14.7799 10.6243 14.7799C7.88435 14.4699 5.21435 13.4699 2.90435 11.8899C2.56435 11.6599 2.47435 11.1899 2.70435 10.8499C2.93435 10.5099 3.40435 10.4199 3.74435 10.6499C5.85435 12.0899 8.28435 12.9999 10.7843 13.2899C11.1943 13.3399 11.4943 13.7099 11.4443 14.1199C11.4143 14.4999 11.0943 14.7799 10.7143 14.7799Z" fill="#F96115"/>
</svg>
