<svg width="32" height="32" viewBox="0 0 32 32" fill="none" xmlns="http://www.w3.org/2000/svg">
<g clip-path="url(#clip0_236_18639)">
<path d="M9.44 12.96L7.2 15.2L14.4 22.4L30.4 6.4L28.16 4.16L14.4 17.92L9.44 12.96ZM28.8 16C28.8 23.04 23.04 28.8 16 28.8C8.96 28.8 3.2 23.04 3.2 16C3.2 8.96 8.96 3.2 16 3.2C17.28 3.2 18.4 3.36 19.52 3.68L22.0801 1.12C20.16 0.48 18.08 0 16 0C7.2 0 0 7.2 0 16C0 24.8 7.2 32 16 32C24.8 32 32 24.8 32 16H28.8Z" fill="white" fill-opacity="0.4"/>
</g>
<defs>
<clipPath id="clip0_236_18639">
<rect width="32" height="32" fill="white"/>
</clipPath>
</defs>
</svg>
