<svg width="26" height="26" viewBox="0 0 26 26" fill="none" xmlns="http://www.w3.org/2000/svg">
<g clip-path="url(#clip0_209_2503)">
<path d="M25.9297 12.5722H24.0203V9.28901L22.1033 7.91898C22.1129 7.85175 22.1178 7.78392 22.1178 7.71601C22.1178 6.92199 21.4719 6.27605 20.6779 6.27605C19.8839 6.27605 19.2379 6.92204 19.2379 7.71601C19.2379 8.50997 19.8839 9.15591 20.6779 9.15591C20.8307 9.15591 20.978 9.13174 21.1163 9.08746L22.4958 10.0733V12.5722H19.0735C18.9982 10.1746 17.5504 8.11728 15.4913 7.16132C16.4015 6.42144 16.9844 5.29369 16.9844 4.03203C16.9844 1.80878 15.1757 0 12.9524 0C10.7291 0 8.92036 1.80878 8.92036 4.03203C8.92036 5.27571 9.48662 6.3894 10.3746 7.12959C8.27889 8.07127 6.79963 10.1479 6.72351 12.5722H3.46462V10.0733L4.8441 9.08746C4.98579 9.13288 5.13369 9.15598 5.28249 9.15591C6.07646 9.15591 6.72244 8.50992 6.72244 7.71601C6.72244 6.92199 6.07646 6.27605 5.28249 6.27605C4.48853 6.27605 3.84254 6.92204 3.84254 7.71601C3.84254 7.78492 3.84772 7.85266 3.85711 7.91903L1.94012 9.28906V12.5723H0.0705566V16.772H1.94012V26H24.0601V16.7719H25.9297V12.5722ZM12.8985 8.11464C13.2511 8.11464 13.5946 8.1541 13.925 8.22875L13.0046 9.3569L12.0666 8.18939C12.3411 8.13962 12.6195 8.1146 12.8985 8.11464ZM12.9524 1.5245C14.3351 1.5245 15.4599 2.64941 15.4599 4.03203C15.4599 5.41465 14.3351 6.53956 12.9524 6.53956C11.5697 6.53956 10.4449 5.41465 10.4449 4.03203C10.4449 2.64941 11.5697 1.5245 12.9524 1.5245ZM10.5588 8.74682L12.9957 11.7796L15.3927 8.84127C16.6383 9.63513 17.483 11.0047 17.5484 12.5722H8.24867C8.31672 10.9406 9.2289 9.52352 10.5588 8.74682ZM22.5356 24.4756H3.46462V16.7719H22.5357V24.4756H22.5356ZM24.4052 15.2475H1.59506V14.0967H24.4052L24.4052 15.2475Z" fill="#F96115"/>
</g>
<defs>
<clipPath id="clip0_209_2503">
<rect width="26" height="26" fill="white"/>
</clipPath>
</defs>
</svg>
