<svg width="28" height="28" viewBox="0 0 28 28" fill="none" xmlns="http://www.w3.org/2000/svg">
<path d="M25.3351 22.3797C25.1769 21.6413 24.8212 20.9597 24.3058 20.4078C23.7905 19.8559 23.1349 19.4543 22.4091 19.2459L17.6479 17.8746L17.6348 17.8351L21.4088 16.689V11.5067C21.8109 11.0149 22.0526 10.387 22.0526 9.70362C22.0526 9.02025 21.8109 8.39238 21.4088 7.90058V7.41014C21.4088 3.32417 18.0846 0 13.9986 0C9.91266 0 6.58849 3.32417 6.58849 7.41014V7.90052C6.18637 8.39233 5.94465 9.02019 5.94465 9.70357C5.94465 10.3869 6.18637 11.0148 6.58849 11.5066V16.6889L10.3625 17.835L10.3493 17.8746L5.5882 19.2459C4.8624 19.4542 4.20682 19.8558 3.69148 20.4077C3.17614 20.9596 2.8204 21.6412 2.66226 22.3796L1.45312 27.9999H26.5442L25.3351 22.3797ZM8.22911 20.1926L8.84156 20.0162L13.5933 26.3594H7.66671C8.03311 24.6317 8.22911 23.1541 8.22911 21.1583V20.1926ZM16.2634 21.1408L15.376 20.193L17.0712 19.4158L17.4697 19.5306L16.2634 21.1408ZM15.2645 22.4743L13.9986 24.164L12.7328 22.4742L13.9986 21.1223L15.2645 22.4743ZM13.9986 15.2605C12.2006 15.2605 10.7377 13.6796 10.7377 11.7365V8.48404C12.0795 8.39353 13.2576 7.69594 13.9986 6.66431C14.7397 7.69594 15.9178 8.39353 17.2595 8.48404V11.7365C17.2595 13.6796 15.7967 15.2605 13.9986 15.2605ZM13.9986 16.9011C14.5134 16.9013 15.0246 16.8161 15.5115 16.649L15.9954 18.1043L13.9986 19.0197L12.0019 18.1043L12.4858 16.649C12.9726 16.8161 13.4839 16.9013 13.9986 16.9011ZM10.9261 19.4158L12.6213 20.193L11.734 21.1408L10.5277 19.5306L10.9261 19.4158ZM19.1557 20.0162L19.7682 20.1926V21.1582C19.7682 23.154 19.9641 24.6317 20.3306 26.3593H14.4039L19.1557 20.0162ZM17.117 16.2778L16.9714 15.8398C17.9472 15.053 18.6354 13.8893 18.8381 12.5568H19.1995C19.3941 12.5568 19.5843 12.5371 19.7682 12.4998V15.4726L17.117 16.2778ZM18.9002 8.49104H19.1995C19.8681 8.49104 20.412 9.03496 20.412 9.70362C20.412 10.3723 19.8681 10.9162 19.1995 10.9162H18.9002V8.49104ZM13.9986 1.64062C17.0092 1.64062 19.4882 3.95855 19.7456 6.90341C19.5657 6.86822 19.3828 6.85046 19.1994 6.85036L17.5571 6.85337C16.0473 6.85337 14.8189 5.62504 14.8189 4.11523H13.1783C13.1783 5.62504 11.95 6.85337 10.4402 6.85337L8.79786 6.85036C8.61105 6.85036 8.42856 6.86896 8.25164 6.90341C8.50911 3.95855 10.9881 1.64062 13.9986 1.64062ZM9.09717 10.9162H8.79786C8.1292 10.9162 7.58528 10.3722 7.58528 9.70357C7.58528 9.0349 8.1292 8.49098 8.79786 8.49098H9.09717V10.9162ZM8.22911 15.4726V12.4997C8.41629 12.5377 8.60681 12.5568 8.79781 12.5568H9.15918C9.36191 13.8893 10.05 15.053 11.0259 15.8398L10.8802 16.2777L8.22911 15.4726ZM4.26624 22.7247C4.36224 22.2765 4.57818 21.8628 4.891 21.5278C5.20381 21.1927 5.60176 20.949 6.04233 20.8225L6.58854 20.6652V21.1583C6.58854 23.1401 6.3786 24.5867 5.98808 26.3594H3.48427L4.26624 22.7247ZM22.0093 26.3594C21.6187 24.5867 21.4088 23.14 21.4088 21.1583V20.6652L21.955 20.8225C22.3956 20.949 22.7936 21.1927 23.1064 21.5278C23.4192 21.8628 23.6352 22.2765 23.7312 22.7247L24.5131 26.3594H22.0093Z" fill="#F96115"/>
</svg>
