<svg width="26" height="26" viewBox="0 0 26 26" fill="none" xmlns="http://www.w3.org/2000/svg">
<path d="M25.9993 15.7581V0H12.2923V7.98392H7.14987C8.66352 7.72163 9.81861 6.39973 9.81861 4.81229C9.81861 3.03691 8.37422 1.59252 6.59883 1.59252C4.82345 1.59252 3.37901 3.03691 3.37901 4.81229C3.37901 6.39973 4.5341 7.72168 6.04775 7.98392H3.83254C1.71174 7.98392 -0.000976562 9.70934 -0.000976562 11.8301V18.9533H3.03329V26.0003H10.7256V12.6294H12.2924V15.7581H18.3904V24.4758H15.3624V26.0003H22.6749V24.4758H19.9139V15.7581H25.9993ZM4.90247 4.81229C4.90247 3.87694 5.66343 3.11597 6.59878 3.11597C7.53413 3.11597 8.2951 3.87694 8.2951 4.81229C8.2951 5.74764 7.53413 6.50861 6.59878 6.50861C5.66343 6.50861 4.90247 5.74764 4.90247 4.81229ZM4.59437 24.424V12.7213H3.07092V17.3547H1.58484V11.8301C1.58484 10.5908 2.59311 9.58243 3.83249 9.58243H15.7698V11.0308H9.12706V24.424H7.64144V18.7892H6.11798V24.424H4.59437ZM13.8015 12.6294H17.3684V8.99108L22.4598 4.19544L21.4152 3.08647L16.2157 7.98392H13.8015V1.48689H24.5028V14.2489H13.8015V12.6294Z" fill="#F96115"/>
</svg>
