<svg width="25" height="24" viewBox="0 0 25 24" fill="none" xmlns="http://www.w3.org/2000/svg">
<path d="M12.5714 14.1699C10.4414 14.1699 8.70142 12.4399 8.70142 10.2999C8.70142 8.15994 10.4414 6.43994 12.5714 6.43994C14.7014 6.43994 16.4414 8.16994 16.4414 10.3099C16.4414 12.4499 14.7014 14.1699 12.5714 14.1699ZM12.5714 7.93994C11.2714 7.93994 10.2014 8.99994 10.2014 10.3099C10.2014 11.6199 11.2614 12.6799 12.5714 12.6799C13.8814 12.6799 14.9414 11.6199 14.9414 10.3099C14.9414 8.99994 13.8714 7.93994 12.5714 7.93994Z" fill="#F96115"/>
<path d="M12.5715 22.76C11.0915 22.76 9.60146 22.2 8.44146 21.09C5.49146 18.25 2.23147 13.72 3.46147 8.33C4.57147 3.44 8.84147 1.25 12.5715 1.25C12.5715 1.25 12.5715 1.25 12.5815 1.25C16.3115 1.25 20.5815 3.44 21.6915 8.34C22.9115 13.73 19.6515 18.25 16.7015 21.09C15.5415 22.2 14.0515 22.76 12.5715 22.76ZM12.5715 2.75C9.66147 2.75 5.92147 4.3 4.93147 8.66C3.85147 13.37 6.81147 17.43 9.49147 20C11.2215 21.67 13.9315 21.67 15.6615 20C18.3315 17.43 21.2915 13.37 20.2315 8.66C19.2315 4.3 15.4815 2.75 12.5715 2.75Z" fill="#F96115"/>
</svg>
