<svg width="25" height="24" viewBox="0 0 25 24" fill="none" xmlns="http://www.w3.org/2000/svg">
<path d="M21.2371 21.13C21.0371 21.13 20.8471 21.05 20.7071 20.91L14.3271 14.53C14.0371 14.24 14.0371 13.76 14.3271 13.47L22.0571 5.74001C22.2471 5.55001 22.5371 5.48001 22.7971 5.55001C23.0571 5.63001 23.2571 5.84001 23.3171 6.10001C23.5071 6.95001 23.6071 7.90001 23.6071 9.00001V15C23.6071 17.77 23.0271 19.64 21.7671 20.91C21.6271 21.05 21.4171 21.08 21.2371 21.13ZM15.9171 14L21.1771 19.26C21.8071 18.29 22.1071 16.91 22.1071 15V9.00001C22.1071 8.59001 22.0971 8.21001 22.0671 7.85001L15.9171 14Z" fill="#F96115"/>
<path d="M7.12717 22.48C7.06717 22.48 7.01718 22.47 6.95718 22.46C3.64718 21.7 2.10718 19.33 2.10718 15V9C2.10718 3.57 4.42718 1.25 9.85718 1.25H15.8572C20.1872 1.25 22.5572 2.79001 23.3172 6.10001C23.3772 6.35001 23.2972 6.62 23.1172 6.8L7.65717 22.26C7.51717 22.4 7.32717 22.48 7.12717 22.48ZM9.85718 2.75C5.24718 2.75 3.60718 4.39 3.60718 9V15C3.60718 18.47 4.56719 20.21 6.89719 20.9L21.7472 6.05C21.0672 3.72 19.3172 2.75999 15.8472 2.75999H9.85718V2.75Z" fill="#F96115"/>
<path d="M15.8571 22.7499H9.85706C8.75706 22.7499 7.81707 22.6599 6.95707 22.4599C6.68707 22.3999 6.47705 22.1999 6.40705 21.9399C6.32705 21.6799 6.40705 21.3999 6.59705 21.1999L14.3271 13.4699C14.6171 13.1799 15.0971 13.1799 15.3871 13.4699L21.7671 19.8499C21.9071 19.9899 21.9871 20.1799 21.9871 20.3799C21.9871 20.5799 21.9071 20.7699 21.7671 20.9099C20.4971 22.1699 18.6271 22.7499 15.8571 22.7499ZM8.70707 21.2099C9.06707 21.2399 9.44706 21.2499 9.85706 21.2499H15.8571C17.7771 21.2499 19.1471 20.9499 20.1171 20.3199L14.8571 15.0599L8.70707 21.2099Z" fill="#F96115"/>
<path d="M9.97712 13.31C9.34712 13.31 8.71711 13.08 8.21711 12.61C6.62711 11.1 5.98713 9.44005 6.36713 7.82005C6.74713 6.16005 8.19712 5.04004 9.97712 5.04004C11.7571 5.04004 13.2071 6.16005 13.5871 7.82005C13.9571 9.45005 13.3171 11.1 11.7271 12.61C11.2371 13.07 10.6071 13.31 9.97712 13.31ZM7.82713 8.15004C7.50713 9.51004 8.42712 10.7301 9.25712 11.5201C9.66712 11.91 10.2971 11.91 10.6971 11.5201C11.5171 10.7401 12.4371 9.52004 12.1271 8.15004C11.8571 6.96004 10.7971 6.53004 9.97712 6.53004C9.15712 6.53004 8.10713 6.96004 7.82713 8.15004Z" fill="#F96115"/>
<path d="M10.0071 9.49023C9.45708 9.49023 9.00708 9.04023 9.00708 8.49023C9.00708 7.94023 9.44708 7.49023 10.0071 7.49023H10.0171C10.5671 7.49023 11.0171 7.94023 11.0171 8.49023C11.0171 9.04023 10.5571 9.49023 10.0071 9.49023Z" fill="#F96115"/>
</svg>
