<svg width="68" height="49" viewBox="0 0 68 49" fill="none" xmlns="http://www.w3.org/2000/svg">
<path d="M33.5 29L1.5 15L32.5 1L66 16L33.5 29Z" fill="white" stroke="black"/>
<path d="M63.4129 49C64.6715 49 65.6686 48.2259 66.3061 47.2706C66.9435 46.3153 67.3031 45.0471 67.3031 43.7294C67.3031 42.4118 66.9435 41.1435 66.3061 40.1882C65.9955 39.7106 65.5869 39.2824 65.0965 38.9694L64.4754 38.6729V17.8871L67.2541 16.8165C68.2348 16.4376 68.2512 15.0376 67.2868 14.6259L33.2225 0.0988235C32.9283 -0.0329412 32.6014 -0.0329412 32.3071 0.0988235L0.711035 13.6871C-0.237012 14.0988 -0.237012 15.4659 0.711035 15.8612L13.526 21.3294V21.4447L13.5097 35.3459C13.5097 35.7741 13.7385 36.1694 14.1308 36.3835C20.4075 39.8424 26.7006 41.6706 33.01 41.72C39.3194 41.7694 45.6288 40.04 51.9383 36.3671C52.2979 36.1529 52.5267 35.7576 52.5267 35.3459V22.5318L62.1543 18.8094V38.7882L61.762 38.9694C61.2716 39.2824 60.863 39.7106 60.5524 40.1882C59.9149 41.1435 59.5553 42.4118 59.5553 43.7294C59.5553 45.0471 59.9149 46.3153 60.5524 47.2706C61.1899 48.2259 62.187 49 63.4456 49H63.4129ZM63.4129 46.6282C62.7591 46.6282 61.8764 45.4753 61.8764 43.7294C61.8764 41.9835 62.7591 40.8306 63.4129 40.8306C64.0667 40.8306 64.933 42 64.933 43.7294C64.933 45.4588 64.0504 46.6282 63.4129 46.6282ZM33.01 39.3482C27.8448 39.3153 22.6632 37.9812 17.4653 35.4612L15.8471 34.6212V31.9529L17.1384 32.6118C22.4344 35.1153 27.7467 36.3835 33.059 36.3835C38.3714 36.3835 43.6837 35.1318 48.996 32.6118L50.1566 32.0188V34.6376L48.522 35.5271C43.3405 38.1459 38.1752 39.3976 33.01 39.3482ZM33.059 34.0118C27.3708 34.0118 21.6825 32.4471 15.9615 29.3671L15.8471 29.3341V22.3176L33.1244 29.68C33.2715 29.7459 33.4187 29.7624 33.5658 29.7788C33.7129 29.7788 33.86 29.7624 34.0071 29.6965L50.1566 23.4376V29.3671C44.452 32.4635 38.7637 34.0118 33.0754 34.0118H33.059ZM33.5985 27.3247L4.17631 14.7741L32.7648 2.47059L63.6908 15.6635L33.5985 27.3247ZM33.0264 17.4918C34.71 17.5082 36.3609 17.08 37.93 16.1576C38.4858 15.8282 38.6819 15.1035 38.355 14.5435C38.0281 13.9835 37.3089 13.7859 36.7532 14.1153C35.5436 14.8235 34.3177 15.1365 33.059 15.12C31.8004 15.12 30.4601 14.7576 29.0217 14.0659C28.4332 13.7859 27.7304 14.0329 27.4525 14.6259C27.1746 15.2188 27.4198 15.9271 28.0082 16.2071C29.6755 17.0141 31.3591 17.4753 33.0264 17.4918Z" fill="white"/>
</svg>
