<svg width="52" height="51" viewBox="0 0 52 51" fill="none" xmlns="http://www.w3.org/2000/svg">
<g clip-path="url(#clip0_237_132)">
<path d="M7.17114 12.8902C7.46426 12.8902 7.7551 12.7704 7.96497 12.5366C12.1577 7.84488 18.1866 5.15389 24.5076 5.15389C27.2198 5.15389 29.8682 5.63515 32.3774 6.58298C32.9238 6.78972 33.5351 6.51859 33.7438 5.97745C33.9526 5.43632 33.6788 4.82966 33.1314 4.62405C30.3792 3.58358 27.4776 3.05713 24.5065 3.05713C17.5799 3.05713 10.9726 6.00569 6.37845 11.147C5.99066 11.5809 6.03172 12.244 6.4697 12.627C6.67157 12.8032 6.92136 12.8902 7.17114 12.8902Z" fill="white"/>
<path d="M45.5235 17.3593C44.9829 17.5795 44.724 18.1919 44.9464 18.7273C46.0379 21.3618 46.5922 24.1545 46.5922 27.0285C46.5922 39.0905 36.6854 48.9032 24.5076 48.9032C13.4477 48.9032 4.03351 40.7252 2.60895 29.8799C2.53367 29.306 2.00331 28.8993 1.42277 28.975C0.842228 29.0496 0.433908 29.576 0.509185 30.1499C2.07061 42.0368 12.3869 51 24.5076 51C37.8522 51 48.7091 40.2462 48.7091 27.0285C48.7091 23.8811 48.1023 20.8196 46.9059 17.9309C46.6835 17.3954 46.0653 17.139 45.5247 17.3593H45.5235Z" fill="white"/>
<path d="M24.508 45.2473C25.0931 45.2473 25.5665 44.7774 25.5665 44.199C25.5665 43.6206 25.092 43.1506 24.508 43.1506C15.5341 43.1506 8.23227 35.9181 8.23227 27.0295C8.23227 18.1409 15.533 10.9073 24.508 10.9073C25.7421 10.9073 26.9728 11.0451 28.1646 11.3151C28.7326 11.4439 29.3029 11.0926 29.4329 10.5277C29.5641 9.96286 29.2083 9.40026 28.638 9.27147C27.291 8.96532 25.9018 8.81055 24.508 8.81055C14.3662 8.81055 6.11426 16.9829 6.11426 27.0295C6.11426 37.0761 14.365 45.2485 24.508 45.2485V45.2473Z" fill="white"/>
<path d="M39.5511 35.6289C39.7028 35.7046 39.8647 35.7396 40.0233 35.7396C40.4122 35.7396 40.7863 35.5273 40.9711 35.159C42.2508 32.6205 42.8998 29.8854 42.8998 27.0284C42.8998 25.3666 42.6739 23.7194 42.228 22.1333C42.0717 21.5752 41.4866 21.2487 40.9243 21.4046C40.3609 21.5594 40.0313 22.1378 40.1886 22.6959C40.5833 24.099 40.7829 25.5564 40.7829 27.0284C40.7829 29.5567 40.2092 31.9765 39.0766 34.2213C38.8154 34.7398 39.0276 35.3691 39.5511 35.6278V35.6289Z" fill="white"/>
<path d="M27.0312 19.2051C27.5878 19.3802 28.1843 19.0763 28.3623 18.525C28.5402 17.9737 28.2323 17.3829 27.6757 17.2066C26.6537 16.8835 25.5873 16.7197 24.5061 16.7197C18.7679 16.7197 14.0996 21.3437 14.0996 27.0273C14.0996 27.6068 14.5741 28.0757 15.158 28.0757C15.742 28.0757 16.2165 27.6057 16.2165 27.0273C16.2165 22.5005 19.9347 18.8165 24.5061 18.8165C25.3683 18.8165 26.218 18.9464 27.0312 19.204V19.2051Z" fill="white"/>
<path d="M24.5076 35.2394C22.8458 35.2394 21.2444 34.7547 19.8735 33.8374C19.3887 33.5131 18.7306 33.6397 18.4033 34.1187C18.076 34.5988 18.2037 35.2507 18.6873 35.5749C20.4084 36.7272 22.4215 37.3361 24.5064 37.3361C30.2446 37.3361 34.9129 32.7122 34.9129 27.0286C34.9129 25.7893 34.6927 24.5771 34.2593 23.4259C34.0552 22.8836 33.4461 22.6069 32.8975 22.8102C32.35 23.0124 32.0717 23.6168 32.2759 24.1591C32.6215 25.0753 32.796 26.0412 32.796 27.0286C32.796 31.5553 29.0778 35.2394 24.5064 35.2394H24.5076Z" fill="white"/>
<path d="M51.4886 10.4002C51.4293 10.006 51.1499 9.67949 50.7678 9.55748L44.3282 7.49348L41.9821 0.708394C41.8521 0.331068 41.5167 0.0599356 41.1175 0.00796857C40.7183 -0.0439985 40.3249 0.133367 40.1002 0.464375L31.7958 12.7354C31.6794 12.9082 31.6167 13.1116 31.6167 13.3194V18.3523L26.5948 23.4236C25.9812 23.0678 25.2706 22.8599 24.5076 22.8599C22.2242 22.8599 20.3719 24.6934 20.3719 26.9563C20.3719 29.2191 22.2231 31.0526 24.5076 31.0526C26.7921 31.0526 28.6433 29.2191 28.6433 26.9563C28.6433 26.2107 28.4391 25.5147 28.0878 24.9126L33.0572 19.8944L38.5433 19.83C38.7554 19.8277 38.9619 19.7622 39.1364 19.6413L51.0484 11.4159C51.378 11.1877 51.5491 10.7945 51.4898 10.4014L51.4886 10.4002ZM38.1909 17.7355L33.7336 17.7875V13.638L40.6693 3.38922L42.4953 8.66952C42.6037 8.98245 42.8535 9.22534 43.1717 9.32701L48.0852 10.9018L38.1897 17.7344L38.1909 17.7355Z" fill="white"/>
<path d="M31.9678 14.1064L40.6486 1.62769L43.3614 8.13832L48.2444 9.76598L48.7869 11.9362L39.021 18.4468H31.9678V14.1064Z" fill="white"/>
</g>
<defs>
<clipPath id="clip0_237_132">
<rect width="51" height="51" fill="white" transform="translate(0.5)"/>
</clipPath>
</defs>
</svg>
