<svg width="68" height="49" viewBox="0 0 68 49" fill="none" xmlns="http://www.w3.org/2000/svg">
<g clip-path="url(#clip0_237_49)">
<path d="M61.6907 27.4092C61.6907 27.4092 61.6907 27.4066 61.688 27.4014C61.6853 27.3988 61.6826 27.391 61.6773 27.3806C61.3231 26.6472 53.6907 10.962 48.0536 10.962L46.1986 7.91555C45.2323 6.32807 43.2517 5.61286 41.4529 6.20346C39.4308 6.86675 38.2935 8.94877 38.8642 10.9464L39.773 14.1279C39.773 14.1279 39.0059 14.8496 38.6931 17.2665C36.3276 17.8519 32.5254 18.4139 28.3397 17.565C28.0537 14.908 27.2251 14.1279 27.2251 14.1279L28.1339 10.9464C28.7045 8.94877 27.5672 6.86545 25.5452 6.20346C23.745 5.61286 21.7657 6.32807 20.7995 7.91555L18.9445 10.962C13.3074 10.962 5.67494 26.6472 5.32078 27.3806C5.31543 27.391 5.31276 27.3988 5.31009 27.4014C5.30741 27.4066 5.30741 27.4092 5.30741 27.4092C4.38393 29.0642 3.90281 30.9878 4.01641 33.027C4.3131 38.3177 8.70332 42.631 14.148 42.9763C18.8202 43.2723 22.9124 40.6957 24.738 36.8899C24.738 36.8873 24.7406 36.8821 24.7406 36.8795C25.1255 36.0786 25.4062 35.2245 25.5733 34.3289C26.1426 32.5117 26.609 30.8515 26.9859 29.3354C29.62 28.6773 35.4322 27.5727 39.9815 29.2082C40.365 30.7594 40.8408 32.4598 41.4262 34.3289C41.6814 35.148 41.9567 35.9969 42.2588 36.8795C42.2588 36.8821 42.2614 36.8873 42.2614 36.8899C44.087 40.6957 48.1792 43.271 52.8514 42.9763C58.2961 42.6323 62.6863 38.319 62.983 33.027C63.0966 30.9878 62.6155 29.0642 61.6907 27.4092ZM14.875 40.9397C10.0398 40.9397 6.12131 37.1339 6.12131 32.4377C6.12131 27.7415 10.0398 23.9357 14.875 23.9357C19.7103 23.9357 23.6287 27.7415 23.6287 32.4377C23.6287 37.1339 19.7103 40.9397 14.875 40.9397ZM52.1257 40.9397C47.2905 40.9397 43.372 37.1339 43.372 32.4377C43.372 27.7415 47.2905 23.9357 52.1257 23.9357C56.961 23.9357 60.8794 27.7415 60.8794 32.4377C60.8794 37.1339 56.961 40.9397 52.1257 40.9397Z" fill="white"/>
</g>
<defs>
<clipPath id="clip0_237_49">
<rect width="59" height="37" fill="white" transform="translate(4 6)"/>
</clipPath>
</defs>
</svg>
